<?xml version="1.0" encoding="utf-8"?>
<svg viewBox="0 0 500 500" xmlns="http://www.w3.org/2000/svg">
  <path d="M 149.358 98.264 L 159.033 97.133 L 159.033 92.505 L 151.419 92.505 C 145.546 92.505 142.25 99.042 145.869 103.514 L 148.547 106.822 L 154.84 106.822 L 149.358 98.264 Z" style="fill: rgb(255, 249, 249);" transform="matrix(1, 0, 0, 1, -7.105427357601002e-15, -7.105427357601002e-15)"/>
  <path d="M 136.709 98.264 L 127.033 97.133 L 127.033 92.505 L 134.648 92.505 C 140.521 92.505 143.817 99.041 140.199 103.513 L 137.52 106.822 L 131.227 106.822 L 136.709 98.264 Z" style="fill: rgb(249, 249, 249);" transform="matrix(1, 0, 0, 1, -7.105427357601002e-15, -7.105427357601002e-15)"/>
  <path d="M 127.033 84.511 L 136.709 83.38 L 131.227 74.822 L 137.52 74.822 L 140.198 78.131 C 143.817 82.602 140.521 89.14 134.648 89.14 L 127.033 89.14 L 127.033 84.511 Z" style="fill: rgb(255, 252, 252);" transform="matrix(1, 0, 0, 1, -7.105427357601002e-15, -7.105427357601002e-15)"/>
  <path d="M 149.358 83.38 L 159.033 84.511 L 159.033 89.14 L 151.419 89.14 C 145.546 89.14 142.25 82.602 145.869 78.131 L 148.547 74.822 L 154.84 74.822 L 149.358 83.38 Z" style="fill: rgb(250, 250, 250);" transform="matrix(1, 0, 0, 1, -7.105427357601002e-15, -7.105427357601002e-15)"/>
  <path d="M 183.604 102.822 C 189.407 102.822 192.847 99.457 193.994 95.508 L 190.688 94.203 C 189.811 97.087 188.057 99.697 183.604 99.697 C 178.814 99.697 175.643 95.782 175.643 90.082 C 175.643 84.381 178.848 80.947 183.604 80.947 C 188.125 80.947 189.913 84.038 190.587 86.167 L 193.961 84.931 C 192.982 81.565 189.643 77.822 183.604 77.822 C 176.723 77.822 172.033 83.111 172.033 90.116 C 172.033 97.156 176.216 102.822 183.604 102.822 Z" style="fill: rgb(255, 255, 255);" transform="matrix(1, 0, 0, 1, -7.105427357601002e-15, -7.105427357601002e-15)"/>
  <path d="M 196.973 102.341 L 200.144 102.341 L 200.144 78.303 L 196.973 78.303 L 196.973 102.341 Z" style="fill: rgb(250, 250, 250);" transform="matrix(1, 0, 0, 1, -7.105427357601002e-15, -7.105427357601002e-15)"/>
  <path d="M 211.271 102.822 C 215.758 102.822 219.199 99.045 219.199 93.859 C 219.199 88.674 215.893 84.828 211.271 84.828 C 206.649 84.828 203.31 88.674 203.31 93.859 C 203.31 98.976 206.751 102.822 211.271 102.822 Z M 211.271 100.041 C 208.505 100.041 206.616 98.049 206.616 93.894 C 206.616 89.704 208.505 87.609 211.271 87.609 C 214.004 87.609 215.893 89.704 215.893 93.894 C 215.893 98.049 214.004 100.041 211.271 100.041 Z" style="fill: rgb(244, 242, 242);" transform="matrix(1, 0, 0, 1, -7.105427357601002e-15, -7.105427357601002e-15)"/>
  <path d="M 227.653 102.822 C 231.094 102.822 232.68 100.418 233.219 99.422 L 233.219 102.341 L 236.323 102.341 L 236.323 85.308 L 233.152 85.308 L 233.152 92.726 C 233.152 95.37 232.95 100.006 228.767 100.006 C 226.675 100.006 225.326 98.77 225.326 95.714 L 225.326 85.308 L 222.155 85.308 L 222.155 96.469 C 222.155 100.247 223.842 102.822 227.653 102.822 Z" style="fill: rgb(249, 242, 242);" transform="matrix(1, 0, 0, 1, -7.105427357601002e-15, -7.105427357601002e-15)"/>
  <path d="M 246.482 102.822 C 249.417 102.822 251.07 101.174 251.879 99.766 L 251.879 102.341 L 254.983 102.341 L 254.983 78.303 L 251.812 78.303 L 251.812 87.918 C 251.002 86.51 249.383 84.828 246.482 84.828 C 242.535 84.828 239.6 88.262 239.6 93.859 C 239.6 99.422 242.535 102.822 246.482 102.822 Z M 247.359 100.075 C 244.795 100.075 242.872 98.495 242.872 93.859 C 242.872 89.258 244.795 87.575 247.359 87.575 C 250.058 87.575 251.981 89.67 251.981 93.859 C 251.981 98.049 250.058 100.075 247.359 100.075 Z" style="fill: rgb(231, 227, 227);" transform="matrix(1, 0, 0, 1, -7.105427357601002e-15, -7.105427357601002e-15)"/>
  <path d="M 260.078 102.341 L 263.451 102.341 L 263.451 91.49 L 275.832 91.49 L 275.832 102.341 L 279.205 102.341 L 279.205 78.303 L 275.832 78.303 L 275.832 88.33 L 263.451 88.33 L 263.451 78.303 L 260.078 78.303 L 260.078 102.341 Z" style="fill: rgb(241, 241, 241);" transform="matrix(1, 0, 0, 1, -7.105427357601002e-15, -7.105427357601002e-15)"/>
  <path d="M 290.533 102.822 C 294.007 102.822 296.672 101.174 297.887 97.911 L 294.986 96.847 C 294.513 98.049 293.333 100.109 290.634 100.109 C 288.34 100.109 286.114 98.736 285.979 94.649 L 297.752 94.649 C 298.359 89.086 295.39 84.828 290.398 84.828 C 286.046 84.828 282.808 88.33 282.808 93.894 C 282.808 99.628 285.877 102.822 290.533 102.822 Z M 286.046 92.074 C 286.316 89.12 288.239 87.403 290.398 87.403 C 292.624 87.403 294.513 89.017 294.547 92.074 L 286.046 92.074 Z" style="fill: rgb(247, 247, 247);" transform="matrix(1, 0, 0, 1, -7.105427357601002e-15, -7.105427357601002e-15)"/>
  <path d="M 301.196 102.341 L 304.367 102.341 L 304.367 94.683 C 304.367 90.666 305.918 88.399 309.629 88.399 C 310.304 88.399 310.877 88.468 311.417 88.536 L 311.417 85.24 C 311.046 85.137 310.574 85.068 309.865 85.068 C 306.526 85.068 304.873 87.609 304.299 88.914 L 304.299 85.308 L 301.196 85.308 L 301.196 102.341 Z" style="fill: rgb(243, 242, 242);" transform="matrix(1, 0, 0, 1, -7.105427357601002e-15, -7.105427357601002e-15)"/>
  <path d="M 320.105 102.822 C 324.592 102.822 328.033 99.045 328.033 93.859 C 328.033 88.674 324.727 84.828 320.105 84.828 C 315.484 84.828 312.144 88.674 312.144 93.859 C 312.144 98.976 315.585 102.822 320.105 102.822 Z M 320.105 100.041 C 317.339 100.041 315.45 98.049 315.45 93.894 C 315.45 89.704 317.339 87.609 320.105 87.609 C 322.838 87.609 324.727 89.704 324.727 93.894 C 324.727 98.049 322.838 100.041 320.105 100.041 Z" style="fill: color(srgb-linear 0.953 0.937 0.937);" transform="matrix(1, 0, 0, 1, -7.105427357601002e-15, -7.105427357601002e-15)"/>
</svg>